<?xml version="1.0" encoding="UTF-8" standalone="no"?>
<!-- Created with Inkscape (http://www.inkscape.org/) -->

<svg
   width="125.65486mm"
   height="138.39534mm"
   viewBox="0 0 125.65486 138.39534"
   version="1.1"
   id="svg1"
   xml:space="preserve"
   xmlns="http://www.w3.org/2000/svg"
   xmlns:svg="http://www.w3.org/2000/svg"><defs
     id="defs1" /><g
     id="layer1"
     transform="translate(-42.028737,-77.837995)"><g
       id="g1"
       transform="matrix(0.26458333,0,0,0.26458333,37.122832,80.766664)"><g
         id="g3">&#10;	<rect
   x="28.740999"
   y="307.91199"
   style="fill:#f07057"
   width="92.169998"
   height="193.886"
   id="rect1" />&#10;	<rect
   x="391.086"
   y="144.756"
   style="fill:#f07057"
   width="92.169998"
   height="357.04099"
   id="rect2" />&#10;	<rect
   x="209.908"
   y="228.45"
   style="fill:#f07057"
   width="92.169998"
   height="273.34698"
   id="rect3" />&#10;</g><path
         d="M 120.916,297.716 H 28.741 c -5.633,0 -10.199,4.567 -10.199,10.199 v 193.886 c 0,5.632 4.566,10.199 10.199,10.199 h 92.175 c 5.633,0 10.199,-4.567 10.199,-10.199 V 307.915 c 0,-5.632 -4.566,-10.199 -10.199,-10.199 z M 110.717,491.602 H 38.94 V 318.114 h 71.776 v 173.488 z"
         id="path3" /><path
         d="m 483.259,134.557 h -92.175 c -5.633,0 -10.199,4.567 -10.199,10.199 V 501.8 c 0,5.632 4.566,10.199 10.199,10.199 h 92.175 c 5.633,0 10.199,-4.567 10.199,-10.199 V 144.756 c 0,-5.633 -4.566,-10.199 -10.199,-10.199 z M 473.06,491.602 H 401.284 V 154.955 h 71.776 z"
         id="path4" /><path
         d="m 302.087,218.255 h -92.175 c -5.633,0 -10.199,4.567 -10.199,10.199 V 501.8 c 0,5.632 4.566,10.199 10.199,10.199 h 92.175 c 5.633,0 10.199,-4.567 10.199,-10.199 V 228.454 c 0,-5.631 -4.566,-10.199 -10.199,-10.199 z M 291.888,491.602 H 220.112 V 238.654 h 71.776 z"
         id="path5" /><path
         d="m 453.063,328.709 c 5.633,0 10.199,-4.567 10.199,-10.199 v -9.535 c 0,-5.632 -4.566,-10.199 -10.199,-10.199 -5.633,0 -10.199,4.567 -10.199,10.199 v 9.535 c 0,5.632 4.566,10.199 10.199,10.199 z"
         id="path6" /><path
         d="m 453.063,481.275 c 5.633,0 10.199,-4.567 10.199,-10.199 V 355.588 c 0,-5.632 -4.566,-10.199 -10.199,-10.199 -5.633,0 -10.199,4.567 -10.199,10.199 v 115.487 c 0,5.633 4.566,10.2 10.199,10.2 z"
         id="path7" /><path
         style="fill:#000000;fill-opacity:1;fill-rule:evenodd;stroke:#000000;stroke-width:10;stroke-linecap:round;stroke-linejoin:round;stroke-miterlimit:6.3;stroke-dasharray:none;stroke-dashoffset:100;stroke-opacity:1;paint-order:markers fill stroke"
         d="m 45.653448,230.10019 h 97.100972 l 95.6071,-93.30146 h 92.61939 L 441.52662,28.918927 V 65.364816 H 457.9591 V -6.06912 l -69.98978,18.301445 9.58943,16.208832 31.34378,-8.195996 -98.96763,96.580939 h -96.05496 l -92.39545,90.16726 H 45.653448 Z"
         id="path18" /></g></g></svg>
