<svg version="1.1" id="Layer_1" xmlns="http://www.w3.org/2000/svg" xmlns:xlink="http://www.w3.org/1999/xlink" x="0px" y="0px"
	 width="100%" viewBox="0 0 512 512" enable-background="new 0 0 512 512" xml:space="preserve">
<path fill="#020101" opacity="0.000000" stroke="none" 
	d="M 64 513 C 43 513 22 513 1 513 C 1 342.4 1 171.8 1 1.1 C 171.7 1.1 342.3 1.1 513 1.1 C 513 29.4 513 57.7 512.6 86.5 C 511.6 86 510.5 85.2 510.3 84.2 C 506.5 68 497.5 55 485.4 44.1 C 479.1 38.5 472.1 33.6 464 31.5 C 463.5 34.3 463.2 36.7 462.4 39.1 C 445 31.3 427.1 33 409 33.2 C 409 40.4 408.7 47.1 409.1 53.7 C 409.3 56 410.5 58.7 412.1 60.4 C 419.2 67.8 422.5 76.3 420.4 86.4 C 417.8 98.8 408.2 107.5 396 108.9 C 384.4 110.2 372.8 103.7 367.8 93.1 C 362.5 81.6 364.8 69.5 373.9 60.5 C 375.1 59.3 376.8 57.8 376.8 56.3 C 377.1 48.7 377 41.1 377 33.2 C 357.3 33.2 338 33.2 318.2 33.2 C 318.2 40.1 318 46.7 318.4 53.3 C 318.5 55.8 319.8 58.7 321.5 60.5 C 329 68.2 331.8 77.2 329.5 87.5 C 326.9 99.2 316.8 107.7 305.2 108.9 C 293.5 110.1 282 103.6 277.1 93 C 271.9 81.8 274.2 69.5 283 60.8 C 284.2 59.5 286 58 286.1 56.6 C 286.4 48.9 286.2 41.1 286.2 33.3 C 266.4 33.3 247.4 33.3 227.8 33.3 C 227.8 40.1 227.9 46.7 227.7 53.4 C 227.6 56.4 228.5 58.5 230.8 60.7 C 239 68.7 241.7 78.4 238.2 89.5 C 234.6 100.8 224.5 108.5 213 109 C 201.4 109.4 190.8 102.9 186.2 92.5 C 181.3 81.5 183.7 69.4 192.4 60.8 C 193.6 59.5 195.5 58 195.6 56.6 C 195.9 48.8 195.7 41.1 195.7 33 C 185.4 33 175.8 33 166.1 33 C 156.5 33 146.9 33 137 33 C 137 40.1 137.1 46.6 136.9 53 C 136.9 56.2 137.7 58.5 140.2 60.8 C 147.4 67.5 150.3 76 148.5 85.7 C 146.3 98.3 136.5 107.3 124.2 108.9 C 112.6 110.3 100.9 103.8 95.9 93.2 C 90.4 81.7 92.8 69.5 102.1 60.3 C 103.2 59.2 104.8 57.8 104.9 56.5 C 105.1 48.7 105 41 105 31.8 C 90.1 33.1 75.4 32.1 62.2 36 C 15.4 49.7 4.9 88.5 9.7 129 C 11.8 129 14 129 16.1 129 C 163.6 129 311.1 129 458.6 129 C 460.7 129 462.9 129.1 465 129.6 C 465 132.3 465 134.6 464.6 136.9 C 312.5 137 160.8 137 9 137 C 9 139.5 9 141.3 9 143.1 C 9 238.4 8.9 333.7 9.1 429 C 9.1 437 10.8 445.1 11.3 453.1 C 8.4 452.8 6 452.6 3.6 452.3 C 3.6 453.1 3.5 453.6 3.6 454.1 C 11.2 481.3 28.7 499.3 55 509 C 58.1 510.2 61 511.7 64 513 M 129 59.5 C 129 45.7 129 31.9 129 18.1 C 128.9 12.5 125.9 9.1 121.1 9 C 116.4 8.9 113 12.4 113 17.8 C 113 38.6 113 59.4 113 80.2 C 113 85.6 116.3 89 121.1 89 C 125.8 88.9 128.9 85.5 129 80 C 129.1 73.5 129 67 129 59.5 M 385 61.5 C 385 67.8 385 74.1 385 80.5 C 385 84.4 386.7 87.2 390.5 88.5 C 396 90.5 401 86.4 401 79.7 C 401 59.4 401 39.1 401 18.8 C 401 12.5 397.9 8.9 392.9 9 C 387.8 9.1 385 12.7 385 19.1 C 385 32.9 385 46.7 385 61.5 M 219.6 16.4 C 217.9 11 214.6 8.5 210.5 9.1 C 206.2 9.8 203.9 13.1 203.9 18.8 C 203.8 36.9 203.9 55.1 203.9 73.2 C 203.9 76 203.7 78.9 203.9 81.7 C 204.3 85.9 206.8 88.5 210.9 88.9 C 214.8 89.3 217.7 87.2 219 83.5 C 219.6 81.9 219.8 80 219.8 78.2 C 219.9 57.8 219.8 37.5 219.6 16.4 M 310.1 33.5 C 310.1 27.8 310.3 22.2 310.1 16.5 C 309.9 12.3 307.4 9.6 303.3 9.1 C 299.2 8.6 296.2 10.7 294.9 14.7 C 294.4 16.1 294.2 17.6 294.2 19.1 C 294.1 39 294.1 59 294.2 79 C 294.2 85 297.6 88.9 302.4 89 C 307.2 89 310.1 85.3 310.1 78.9 C 310.2 64.1 310.1 49.3 310.1 33.5 M 227.7 74.2 C 227.6 77.1 227.8 80.2 227.4 83.1 C 226.1 91.7 219 97.5 210.7 96.9 C 202.4 96.4 196.1 89.7 195.8 81.1 C 195.7 77.5 195.8 74 195.8 69.9 C 189.7 77.1 190.6 88.2 197.5 95.1 C 204.9 102.5 216.6 103.1 224.6 96.3 C 232.4 89.6 234 78.8 228 70.1 C 227.9 71.4 227.8 72.4 227.7 74.2 M 294.1 94.7 C 284.7 89 286.5 79.3 286.3 69.2 C 279.8 80.3 282.3 91.7 291.3 97.7 C 300.1 103.6 312.1 101.5 318.4 92.9 C 323.7 85.8 323.6 75.1 318.3 70.5 C 317.9 93 309.7 101.4 294.1 94.7 M 107.6 95.9 C 117.3 103.1 128.1 102.6 135.5 94.7 C 142.1 87.8 142.9 77.4 137 70.1 C 137 73.8 137 77 137 80.3 C 136.8 90 129.9 97.1 120.8 97 C 111.9 96.9 105.2 89.8 105 80.4 C 105 77.1 105 73.7 105 69.2 C 99 79 99.9 87.2 107.6 95.9 M 398.4 100.2 C 413.7 96.1 416.6 77 409 70.4 C 409 73.7 409 76.8 409 80 C 408.9 89.7 402.2 96.9 393.2 97 C 383.9 97.1 377.1 89.8 377 79.8 C 377 76.7 377 73.5 377 70.4 C 371.8 77.9 371.7 85.3 376.7 92.4 C 381.8 99.6 388.9 102.2 398.4 100.2 z"/>
<path fill="#0e0d0d" opacity="0.000000" stroke="none" 
	d="M 462.8 39.1 C 463.2 36.7 463.5 34.3 464 31.5 C 472.1 33.6 479.1 38.5 485.4 44.1 C 497.5 55 506.5 68 510.3 84.2 C 510.5 85.2 511.6 86 512.6 86.9 C 513 208 513 329 512.6 450.6 C 510.1 456.6 508.3 462.3 505.7 467.5 C 494.9 489.2 477.9 503.5 454.8 510.6 C 453.4 511.1 452.3 512.2 451 513 C 322.3 513 193.6 513 64.5 513 C 61 511.7 58.1 510.2 55 509 C 28.7 499.3 11.2 481.3 3.6 454.1 C 3.5 453.6 3.6 453.1 3.6 452.3 C 6 452.6 8.4 452.8 11.4 453.3 C 12.3 454.1 12.6 454.6 12.8 455.5 C 22.4 485.3 50 505 82.1 505 C 198.5 505 315 505 431.4 505 C 473.4 505 505 473.4 505 431.4 C 505 334.9 505 238.4 505 142 C 505 140.4 505 138.8 505 137.2 C 491.2 137.2 478.1 137.2 464.9 137.1 C 464.9 137 465 136.9 465 136.9 C 465 134.6 465 132.3 465 129.5 C 464.9 129 464.9 128.8 465.4 128.9 C 478.8 129 491.7 129 505.9 129 C 504.9 115 505.4 101.3 502.7 88.3 C 498.2 66.7 485.2 50.7 464.9 40.7 C 464.1 40 463.4 39.6 462.8 39.1 z"/>
<path fill="#000000" opacity="0.000000" stroke="none" 
	d="M 451.5 513 C 452.3 512.2 453.4 511.1 454.8 510.6 C 477.9 503.5 494.9 489.2 505.7 467.5 C 508.3 462.3 510.1 456.6 512.6 451.1 C 513 471.6 513 492.2 513 513 C 492.6 513 472.3 513 451.5 513 z"/>
<path fill="#e6e6e6" opacity="1.000000" stroke="none" 
	d="M 12.8 455.1 C 12.6 454.6 12.3 454.1 11.9 453.3 C 10.8 445.1 9.1 437 9.1 429 C 8.9 333.7 9 238.4 9 143.1 C 9 141.3 9 139.5 9 137 C 160.8 137 312.5 137 464.6 136.9 C 465 136.9 464.9 137 464.9 137.5 C 465 217.1 465 296.1 465 375.1 C 465 399.6 456.4 420.3 437.8 436.8 C 422.8 450.1 405.4 457.1 385.6 456.9 C 261.3 455.9 137.1 459.5 12.8 455.1 z"/>
<path fill="#fe0000" opacity="1.000000" stroke="none" 
	d="M 462.4 39.1 C 463.4 39.6 464.1 40 464.8 41.1 C 465 70.8 465 99.8 464.9 128.8 C 464.9 128.8 464.9 129 465 129.1 C 462.9 129.1 460.7 129 458.6 129 C 311.1 129 163.6 129 16.1 129 C 14 129 11.8 129 9.7 129 C 4.9 88.5 15.4 49.7 62.2 36 C 75.4 32.1 90.1 33.1 105 31.8 C 105 41 105.1 48.7 104.9 56.5 C 104.8 57.8 103.2 59.2 102.1 60.3 C 92.8 69.5 90.4 81.7 95.9 93.2 C 100.9 103.8 112.6 110.3 124.2 108.9 C 136.5 107.3 146.3 98.3 148.5 85.7 C 150.3 76 147.4 67.5 140.2 60.8 C 137.7 58.5 136.9 56.2 136.9 53 C 137.1 46.6 137 40.1 137 33 C 146.9 33 156.5 33 166.1 33 C 175.8 33 185.4 33 195.7 33 C 195.7 41.1 195.9 48.8 195.6 56.6 C 195.5 58 193.6 59.5 192.4 60.8 C 183.7 69.4 181.3 81.5 186.2 92.5 C 190.8 102.9 201.4 109.4 213 109 C 224.5 108.5 234.6 100.8 238.2 89.5 C 241.7 78.4 239 68.7 230.8 60.7 C 228.5 58.5 227.6 56.4 227.7 53.4 C 227.9 46.7 227.8 40.1 227.8 33.3 C 247.4 33.3 266.4 33.3 286.2 33.3 C 286.2 41.1 286.4 48.9 286.1 56.6 C 286 58 284.2 59.5 283 60.8 C 274.2 69.5 271.9 81.8 277.1 93 C 282 103.6 293.5 110.1 305.2 108.9 C 316.8 107.7 326.9 99.2 329.5 87.5 C 331.8 77.2 329 68.2 321.5 60.5 C 319.8 58.7 318.5 55.8 318.4 53.3 C 318 46.7 318.2 40.1 318.2 33.2 C 338 33.2 357.3 33.2 377 33.2 C 377 41.1 377.1 48.7 376.8 56.3 C 376.8 57.8 375.1 59.3 373.9 60.5 C 364.8 69.5 362.5 81.6 367.8 93.1 C 372.8 103.7 384.4 110.2 396 108.9 C 408.2 107.5 417.8 98.8 420.4 86.4 C 422.5 76.3 419.2 67.8 412.1 60.4 C 410.5 58.7 409.3 56 409.1 53.7 C 408.7 47.1 409 40.4 409 33.2 C 427.1 33 445 31.3 462.4 39.1 z"/>
<path fill="#555555" opacity="1.000000" stroke="none" 
	d="M 129 60 C 129 67 129.1 73.5 129 80 C 128.9 85.5 125.8 88.9 121.1 89 C 116.3 89 113 85.6 113 80.2 C 113 59.4 113 38.6 113 17.8 C 113 12.4 116.4 8.9 121.1 9 C 125.9 9.1 128.9 12.5 129 18.1 C 129 31.9 129 45.7 129 60 z"/>
<path fill="#555555" opacity="1.000000" stroke="none" 
	d="M 385 61 C 385 46.7 385 32.9 385 19.1 C 385 12.7 387.8 9.1 392.9 9 C 397.9 8.9 401 12.5 401 18.8 C 401 39.1 401 59.4 401 79.7 C 401 86.4 396 90.5 390.5 88.5 C 386.7 87.2 385 84.4 385 80.5 C 385 74.1 385 67.8 385 61 z"/>
<path fill="#545454" opacity="1.000000" stroke="none" 
	d="M 219.7 16.8 C 219.8 37.5 219.9 57.8 219.8 78.2 C 219.8 80 219.6 81.9 219 83.5 C 217.7 87.2 214.8 89.3 210.9 88.9 C 206.8 88.5 204.3 85.9 203.9 81.7 C 203.7 78.9 203.9 76 203.9 73.2 C 203.9 55.1 203.8 36.9 203.9 18.8 C 203.9 13.1 206.2 9.8 210.5 9.1 C 214.6 8.5 217.9 11 219.7 16.8 z"/>
<path fill="#545454" opacity="1.000000" stroke="none" 
	d="M 310.1 34 C 310.1 49.3 310.2 64.1 310.1 78.9 C 310.1 85.3 307.2 89 302.4 89 C 297.6 88.9 294.2 85 294.2 79 C 294.1 59 294.1 39 294.2 19.1 C 294.2 17.6 294.4 16.1 294.9 14.7 C 296.2 10.7 299.2 8.6 303.3 9.1 C 307.4 9.6 309.9 12.3 310.1 16.5 C 310.3 22.2 310.1 27.8 310.1 34 z"/>
<path fill="#ededed" opacity="1.000000" stroke="none" 
	d="M 227.7 73.7 C 227.8 72.4 227.9 71.4 228 70.1 C 234 78.8 232.4 89.6 224.6 96.3 C 216.6 103.1 204.9 102.5 197.5 95.1 C 190.6 88.2 189.7 77.1 195.8 69.9 C 195.8 74 195.7 77.5 195.8 81.1 C 196.1 89.7 202.4 96.4 210.7 96.9 C 219 97.5 226.1 91.7 227.4 83.1 C 227.8 80.2 227.6 77.1 227.7 73.7 z"/>
<path fill="#ededed" opacity="1.000000" stroke="none" 
	d="M 294.5 94.8 C 309.7 101.4 317.9 93 318.3 70.5 C 323.6 75.1 323.7 85.8 318.4 92.9 C 312.1 101.5 300.1 103.6 291.3 97.7 C 282.3 91.7 279.8 80.3 286.3 69.2 C 286.5 79.3 284.7 89 294.5 94.8 z"/>
<path fill="#f1f1f1" opacity="1.000000" stroke="none" 
	d="M 107.4 95.6 C 99.9 87.2 99 79 105 69.2 C 105 73.7 105 77.1 105 80.4 C 105.2 89.8 111.9 96.9 120.8 97 C 129.9 97.1 136.8 90 137 80.3 C 137 77 137 73.8 137 70.1 C 142.9 77.4 142.1 87.8 135.5 94.7 C 128.1 102.6 117.3 103.1 107.4 95.6 z"/>
<path fill="#f1f1f1" opacity="1.000000" stroke="none" 
	d="M 398 100.3 C 388.9 102.2 381.8 99.6 376.7 92.4 C 371.7 85.3 371.8 77.9 377 70.4 C 377 73.5 377 76.7 377 79.8 C 377.1 89.8 383.9 97.1 393.2 97 C 402.2 96.9 408.9 89.7 409 80 C 409 76.8 409 73.7 409 70.4 C 416.6 77 413.7 96.1 398 100.3 z"/>
<path fill="#d1d1d1" opacity="1.000000" stroke="none" 
	d="M 12.8 455.5 C 137.1 459.5 261.3 455.9 385.6 456.9 C 405.4 457.1 422.8 450.1 437.8 436.8 C 456.4 420.3 465 399.6 465 375.1 C 465 296.1 465 217.1 465 137.6 C 478.1 137.2 491.2 137.2 505 137.2 C 505 138.8 505 140.4 505 142 C 505 238.4 505 334.9 505 431.4 C 505 473.4 473.4 505 431.4 505 C 315 505 198.5 505 82.1 505 C 50 505 22.4 485.3 12.8 455.5 z"/>
<path fill="#e50d0d" opacity="1.000000" stroke="none" 
	d="M 465.4 128.9 C 465 99.8 465 70.8 465 41.4 C 485.2 50.7 498.2 66.7 502.7 88.3 C 505.4 101.3 504.9 115 505.9 129 C 491.7 129 478.8 129 465.4 128.9 z"/>
	<text font-size="350" font-weight="bold" textLength="0" x="47" y="415" fill="rgb(0, 0, 0)">
		30
	</text>

</svg>