<?xml version="1.0" encoding="UTF-8" standalone="no"?>
<!-- Created with Inkscape (http://www.inkscape.org/) -->

<svg
   width="127.03965mm"
   height="140.83221mm"
   viewBox="0 0 127.03965 140.83221"
   version="1.1"
   id="svg1"
   xml:space="preserve"
   inkscape:export-filename="bitmap.svg"
   inkscape:export-xdpi="96"
   inkscape:export-ydpi="96"
   xmlns:inkscape="http://www.inkscape.org/namespaces/inkscape"
   xmlns:sodipodi="http://sodipodi.sourceforge.net/DTD/sodipodi-0.dtd"
   xmlns="http://www.w3.org/2000/svg"
   xmlns:svg="http://www.w3.org/2000/svg"><sodipodi:namedview
     id="namedview1"
     pagecolor="#ffffff"
     bordercolor="#000000"
     borderopacity="0.25"
     inkscape:showpageshadow="2"
     inkscape:pageopacity="0.0"
     inkscape:pagecheckerboard="0"
     inkscape:deskcolor="#d1d1d1"
     inkscape:document-units="mm"
     inkscape:export-bgcolor="#ffffff00"
     inkscape:zoom="0.71535494"
     inkscape:cx="396.30676"
     inkscape:cy="561.25984"
     inkscape:window-width="1920"
     inkscape:window-height="1027"
     inkscape:window-x="-8"
     inkscape:window-y="22"
     inkscape:window-maximized="1"
     inkscape:current-layer="g1" /><defs
     id="defs1" /><g
     inkscape:label="Capa 1"
     inkscape:groupmode="layer"
     id="layer1"
     transform="translate(-40.643945,-75.401121)"><g
       id="g1"
       transform="matrix(0.26458333,0,0,0.26458333,37.122832,80.766664)"><g
         id="g3">&#10;	<rect
   x="28.740999"
   y="307.91199"
   style="fill:#f07057"
   width="92.169998"
   height="193.886"
   id="rect1" />&#10;	<rect
   x="391.086"
   y="144.756"
   style="fill:#f07057"
   width="92.169998"
   height="357.04099"
   id="rect2" />&#10;	<rect
   x="209.908"
   y="228.45"
   style="fill:#f07057"
   width="92.169998"
   height="273.34698"
   id="rect3" />&#10;</g><path
         d="M 120.916,297.716 H 28.741 c -5.633,0 -10.199,4.567 -10.199,10.199 v 193.886 c 0,5.632 4.566,10.199 10.199,10.199 h 92.175 c 5.633,0 10.199,-4.567 10.199,-10.199 V 307.915 c 0,-5.632 -4.566,-10.199 -10.199,-10.199 z M 110.717,491.602 H 38.94 V 318.114 h 71.776 v 173.488 z"
         id="path3" /><path
         d="m 483.259,134.557 h -92.175 c -5.633,0 -10.199,4.567 -10.199,10.199 V 501.8 c 0,5.632 4.566,10.199 10.199,10.199 h 92.175 c 5.633,0 10.199,-4.567 10.199,-10.199 V 144.756 c 0,-5.633 -4.566,-10.199 -10.199,-10.199 z M 473.06,491.602 H 401.284 V 154.955 h 71.776 z"
         id="path4" /><path
         d="m 302.087,218.255 h -92.175 c -5.633,0 -10.199,4.567 -10.199,10.199 V 501.8 c 0,5.632 4.566,10.199 10.199,10.199 h 92.175 c 5.633,0 10.199,-4.567 10.199,-10.199 V 228.454 c 0,-5.631 -4.566,-10.199 -10.199,-10.199 z M 291.888,491.602 H 220.112 V 238.654 h 71.776 z"
         id="path5" /><path
         d="m 453.063,328.709 c 5.633,0 10.199,-4.567 10.199,-10.199 v -9.535 c 0,-5.632 -4.566,-10.199 -10.199,-10.199 -5.633,0 -10.199,4.567 -10.199,10.199 v 9.535 c 0,5.632 4.566,10.199 10.199,10.199 z"
         id="path6" /><path
         d="m 453.063,481.275 c 5.633,0 10.199,-4.567 10.199,-10.199 V 355.588 c 0,-5.632 -4.566,-10.199 -10.199,-10.199 -5.633,0 -10.199,4.567 -10.199,10.199 v 115.487 c 0,5.633 4.566,10.2 10.199,10.2 z"
         id="path7" /><path
         style="fill:#ff0000;fill-rule:evenodd;stroke:#000000;stroke-width:1.384;stroke-linecap:round;stroke-linejoin:round;stroke-miterlimit:6.3;stroke-dashoffset:100;paint-order:markers fill stroke"
         id="path13"
         d="m 43.4393,210.07921 c 25.22852,-3.07795 50.73701,-1.84492 76.01209,-4.25743 8.0905,-0.77224 16.12002,-2.08693 24.18003,-3.13039 24.53215,-4.4471 24.37873,-3.72444 48.55263,-10.95124 8.32247,-2.488 16.62299,-5.08545 24.75987,-8.12597 14.49424,-5.41611 40.229,-17.01628 53.82255,-23.74265 9.29436,-4.59904 18.36092,-9.64477 27.54138,-14.46716 38.37565,-20.57828 73.35699,-47.01243 104.74377,-77.13678 4.55178,-4.36869 8.84614,-8.99792 13.26921,-13.49688 11.71983,-11.32873 21.74879,-24.08048 30.7418,-37.6179 0,0 -28.92521,-16.66474 -28.92521,-16.66474 v 0 c -1.18281,2.50726 -2.25448,5.07003 -3.54842,7.52179 -6.11193,11.58086 -13.91095,22.12359 -22.16525,32.25174 -4.02965,4.68036 -7.92238,9.48218 -12.08895,14.04108 -28.85689,31.57414 -62.52246,58.60404 -99.95762,79.34408 -9.22397,4.74245 -18.28855,9.80864 -27.67191,14.22735 -17.03977,8.02419 -37.7757,16.10822 -55.65712,22.20551 -16.06449,5.47775 -33.10771,10.38724 -49.71884,13.93961 -7.95175,1.70051 -16.0117,2.84842 -24.01755,4.27264 -8.17572,0.88309 -16.32274,2.0928 -24.52716,2.64929 -28.24204,1.91559 -56.61016,-0.4184 -84.78462,-2.25087 z" /><path
         style="fill:#ff0000;fill-rule:evenodd;stroke:#000000;stroke-width:1.384;stroke-linecap:round;stroke-linejoin:round;stroke-miterlimit:6.3;stroke-dashoffset:100;paint-order:markers fill stroke"
         id="path14"
         d="m 354.9597,19.73132 c 23.52822,-4.7728 47.03152,-9.66345 70.66877,-13.8848 5.39933,-0.96614 10.70762,-2.36114 16.07985,-3.45362 2.03261,-0.41334 7.13463,-1.53318 9.55776,-1.13771 0.97848,0.1597 3.56184,1.73857 2.69767,1.25261 -9.8076,-5.51522 -19.69006,-10.89626 -29.53509,-16.3444 0.52358,0.40812 1.15608,0.70595 1.57075,1.22437 2.54428,3.18079 2.21576,9.92031 2.22745,13.75289 0.26184,7.14259 -0.25,14.28294 -0.11944,21.42136 0.65779,7.24576 2.22285,14.3745 3.60043,21.509 1.05714,6.96758 3.21391,13.63904 5.63136,20.23089 1.75085,5.04303 3.46239,10.09879 5.13947,15.16673 0,0 31.72758,14.86253 31.72758,14.86253 v 0 c -1.75923,-4.92083 -3.65662,-9.82336 -4.63078,-14.97936 -2.23796,-6.38758 -3.98867,-12.96381 -5.58491,-19.53852 -1.13228,-7.01811 -2.87575,-13.91506 -3.94239,-20.9438 0.25197,-7.10662 -0.0301,-14.2274 0.37755,-21.33402 -0.0154,-6.05888 0.47032,-12.40071 -1.91002,-18.11174 -11.14889,-6.28093 -22.07448,-12.97586 -33.44668,-18.84279 -1.18562,-0.61166 -5.96727,0.72002 -6.70972,0.93048 -6.43131,1.82306 -12.61787,4.46672 -19.14121,5.99358 -23.86347,6.14673 -48.24378,12.02157 -73.05776,11.30236 z" /><path
         style="fill:#ff0000;fill-rule:evenodd;stroke:#000000;stroke-width:1.384;stroke-linecap:round;stroke-linejoin:round;stroke-miterlimit:6.3;stroke-dashoffset:100;paint-order:markers fill stroke"
         id="path15"
         d="m 438.10758,28.32962 c 0.23583,-0.36156 0.54464,-0.68489 0.70749,-1.08466 1.70827,-4.19364 1.96497,-8.96506 2.89282,-13.35947 1.22812,-2.97086 2.53601,-6.16155 4.55033,-8.7168 0.1279,-0.16225 3.15391,-3.23664 3.19604,-3.27957 0.54669,-0.57801 1.09338,-1.15603 1.64007,-1.73404 0,0 -31.25974,-18.98156 -31.25974,-18.98156 v 0 c -0.50536,0.56328 -1.01071,1.12656 -1.51607,1.68983 -4.04906,4.17921 -6.58883,8.30818 -8.6097,13.79006 -0.23454,0.93819 -0.51938,1.86523 -0.70363,2.81458 -0.59403,3.06084 -0.43902,6.9734 -2.80543,9.30849 z" /></g></g></svg>
