<?xml version="1.0" encoding="UTF-8" standalone="no"?>
<!-- Created with Inkscape (http://www.inkscape.org/) -->

<svg
   width="125.65486mm"
   height="115.44383mm"
   viewBox="0 0 125.65486 115.44383"
   version="1.1"
   id="svg1"
   xml:space="preserve"
   inkscape:export-filename="bitmap.svg"
   inkscape:export-xdpi="96"
   inkscape:export-ydpi="96"
   xmlns:inkscape="http://www.inkscape.org/namespaces/inkscape"
   xmlns:sodipodi="http://sodipodi.sourceforge.net/DTD/sodipodi-0.dtd"
   xmlns="http://www.w3.org/2000/svg"
   xmlns:svg="http://www.w3.org/2000/svg"><sodipodi:namedview
     id="namedview1"
     pagecolor="#ffffff"
     bordercolor="#000000"
     borderopacity="0.25"
     inkscape:showpageshadow="2"
     inkscape:pageopacity="0.0"
     inkscape:pagecheckerboard="0"
     inkscape:deskcolor="#d1d1d1"
     inkscape:document-units="mm"
     inkscape:export-bgcolor="#ffffff00" /><defs
     id="defs1" /><g
     inkscape:label="Capa 1"
     inkscape:groupmode="layer"
     id="layer1"
     transform="translate(-42.028737,-100.78951)"><g
       id="g1"
       transform="matrix(0.26458333,0,0,0.26458333,37.122832,80.766664)"><g
         id="g3">&#10;	<rect
   x="28.740999"
   y="307.91199"
   style="fill:#f07057"
   width="92.169998"
   height="193.886"
   id="rect1" />&#10;	<rect
   x="391.086"
   y="144.756"
   style="fill:#f07057"
   width="92.169998"
   height="357.04099"
   id="rect2" />&#10;	<rect
   x="209.908"
   y="228.45"
   style="fill:#f07057"
   width="92.169998"
   height="273.34698"
   id="rect3" />&#10;</g><path
         d="M 120.916,297.716 H 28.741 c -5.633,0 -10.199,4.567 -10.199,10.199 v 193.886 c 0,5.632 4.566,10.199 10.199,10.199 h 92.175 c 5.633,0 10.199,-4.567 10.199,-10.199 V 307.915 c 0,-5.632 -4.566,-10.199 -10.199,-10.199 z M 110.717,491.602 H 38.94 V 318.114 h 71.776 v 173.488 z"
         id="path3" /><path
         d="m 483.259,134.557 h -92.175 c -5.633,0 -10.199,4.567 -10.199,10.199 V 501.8 c 0,5.632 4.566,10.199 10.199,10.199 h 92.175 c 5.633,0 10.199,-4.567 10.199,-10.199 V 144.756 c 0,-5.633 -4.566,-10.199 -10.199,-10.199 z M 473.06,491.602 H 401.284 V 154.955 h 71.776 z"
         id="path4" /><path
         d="m 302.087,218.255 h -92.175 c -5.633,0 -10.199,4.567 -10.199,10.199 V 501.8 c 0,5.632 4.566,10.199 10.199,10.199 h 92.175 c 5.633,0 10.199,-4.567 10.199,-10.199 V 228.454 c 0,-5.631 -4.566,-10.199 -10.199,-10.199 z M 291.888,491.602 H 220.112 V 238.654 h 71.776 z"
         id="path5" /><path
         d="m 453.063,328.709 c 5.633,0 10.199,-4.567 10.199,-10.199 v -9.535 c 0,-5.632 -4.566,-10.199 -10.199,-10.199 -5.633,0 -10.199,4.567 -10.199,10.199 v 9.535 c 0,5.632 4.566,10.199 10.199,10.199 z"
         id="path6" /><path
         d="m 453.063,481.275 c 5.633,0 10.199,-4.567 10.199,-10.199 V 355.588 c 0,-5.632 -4.566,-10.199 -10.199,-10.199 -5.633,0 -10.199,4.567 -10.199,10.199 v 115.487 c 0,5.633 4.566,10.2 10.199,10.2 z"
         id="path7" /><path
         style="fill:#ff0000;fill-rule:evenodd;stroke:#000000;stroke-width:1.384;stroke-linecap:round;stroke-linejoin:round;stroke-miterlimit:6.3;stroke-dashoffset:100;paint-order:markers fill stroke"
         d="m 44.21701,274.87175 h 61.50793 L 200.08369,180.513 h 90.16504 l 80.72915,-80.72916 h 78.6323 V 76.36889 H 367.13364 L 284.6571,158.84543 H 203.57846 L 102.23017,260.19372 h -66.4006 z"
         id="path13" /></g></g></svg>
