<?xml version="1.0" standalone="no"?>
<!DOCTYPE svg PUBLIC "-//W3C//DTD SVG 20010904//EN"
 "http://www.w3.org/TR/2001/REC-SVG-20010904/DTD/svg10.dtd">
<svg version="1" xmlns="http://www.w3.org/2000/svg"
 width="512pt" height="512pt" viewBox="0 0 512 512"
 preserveAspectRatio="xMidYMid meet">

<g transform="matrix(0.1,0,0,-0.1,0,512)"
fill="#000000" stroke="none">
<path d="M 1135 5106 c -64 -29 -95 -85 -95 -171 l 0 -53 l -197 -4 c -170 -4 -208 -8 -268 -27 c -269 -87 -463 -282 -547 -551 l -23 -75 l 0 -1775 c 0 -1704 1 -1778 19 -1845 c 78 -293 287 -499 591 -583 c 55 -16 216 -17 1945 -17 c 1729 0 1890 1 1945 17 c 106 29 172 58 248 108 c 174 113 285 269 345 485 c 16 55 17 208 17 1830 c 0 1995 7 1815 -80 1990 c -99 201 -267 344 -490 416 c -60 19 -98 23 -266 27 l -197 4 l -4 69 c -6 109 -59 164 -158 164 c -100 0 -152 -55 -158 -165 l -4 -70 l -294 0 l -294 0 l 0 64 c 0 69 -20 111 -72 149 c -41 31 -114 33 -162 5 c -53 -31 -77 -75 -84 -153 l -5 -65 l -287 0 l -287 0 l -5 64 c -7 80 -35 129 -91 157 c -74 38 -153 14 -204 -61 c -18 -26 -23 -47 -23 -96 l 0 -64 l -294 0 l -294 0 l -4 70 c -4 74 -19 105 -70 143 c -34 25 -113 32 -153 13 z m -69 -872 c 39 -53 71 -69 134 -69 c 44 0 66 5 86 21 c 55 41 68 69 74 162 c 6 84 6 86 20 57 c 23 -49 19 -143 -9 -188 c -38 -61 -92 -92 -165 -92 c -77 0 -130 26 -171 84 c -26 37 -30 51 -30 109 c 0 41 6 77 15 92 c 14 24 15 20 20 -62 c 4 -66 10 -94 26 -114 z m 910 0 c 52 -70 130 -92 201 -55 c 61 31 86 78 91 174 c 5 79 5 80 20 51 c 20 -38 20 -131 0 -169 c -79 -150 -283 -151 -359 -3 c -24 47 -25 128 -1 171 l 17 32 l 5 -87 c 4 -67 10 -93 26 -114 z m 904 2 c 44 -73 153 -97 218 -49 c 54 40 67 69 72 161 l 5 87 l 18 -32 c 36 -66 15 -175 -45 -230 c -95 -89 -253 -58 -315 62 c -20 38 -21 121 -3 165 l 15 35 l 6 -81 c 4 -60 12 -92 29 -118 z m 906 -2 c 39 -53 71 -69 134 -69 c 44 0 66 5 86 21 c 55 41 68 69 74 162 c 6 84 6 86 20 57 c 23 -49 19 -143 -9 -188 c -38 -61 -92 -92 -165 -92 c -77 0 -130 26 -171 84 c -26 37 -30 51 -30 109 c 0 41 6 77 15 92 c 14 24 15 20 20 -62 c 4 -66 10 -94 26 -114 z m 1254 -1984 c 0 -1642 2 -1582 -55 -1721 c -68 -169 -217 -320 -383 -389 c -150 -63 -42 -60 -2042 -60 c -1981 0 -1891 -2 -2031 55 c -170 69 -320 216 -391 386 c -60 144 -58 80 -58 1730 l 0 1509 l 2480 0 l 2480 0 l 0 -1510 z"/>
</g>
</svg>
