<?xml version="1.0" standalone="no"?>
<!DOCTYPE svg PUBLIC "-//W3C//DTD SVG 20010904//EN"
 "http://www.w3.org/TR/2001/REC-SVG-20010904/DTD/svg10.dtd">
<svg version="1" xmlns="http://www.w3.org/2000/svg"
 width="512pt" height="512pt" viewBox="0 0 512 512"
 preserveAspectRatio="xMidYMid meet">

<g transform="matrix(0.1,0,0,-0.1,0,512)"
fill="#000000" stroke="none">
<circle fill="skyblue" stroke="none" cx="3100" cy="2000" r="1100"/>
<path d="M 3061 2456 c -47 -26 -63 -84 -36 -135 c 15 -31 47 -46 113 -55 c 113 -16 202 -105 218 -218 c 9 -66 24 -98 55 -113 c 75 -39 149 10 149 98 c -1 101 -60 235 -137 308 c -103 99 -286 157 -362 115 z"/>
<path d="M 215 5102 c -99 -34 -174 -117 -195 -215 c -8 -37 -10 -701 -8 -2357 l 3 -2305 l 21 -46 c 28 -60 93 -125 153 -153 l 46 -21 l 1795 0 l 1795 0 l 46 21 c 60 28 125 93 153 153 c 19 41 21 67 24 235 l 4 189 l 271 -270 c 150 -149 288 -279 307 -290 c 123 -71 295 -46 398 57 c 75 76 87 108 87 240 c 0 103 -2 119 -24 155 c -13 22 -211 228 -439 457 l -415 416 l 40 84 c 225 463 157 1006 -177 1407 l -50 60 l 0 567 c 0 483 -2 571 -15 598 c -20 42 -992 1012 -1028 1025 c -19 8 -459 11 -1385 11 c -1260 -1 -1361 -2 -1407 -18 z m 2657 -559 c 3 -362 4 -380 24 -424 c 28 -60 93 -125 153 -153 c 44 -20 62 -21 424 -24 l 377 -3 l 0 -425 c 0 -337 -3 -424 -12 -418 c -7 4 -24 15 -38 25 c -48 33 -205 107 -280 132 c -145 48 -233 61 -405 61 c -232 1 -400 -39 -593 -139 c -365 -190 -600 -502 -689 -916 c -13 -62 -17 -126 -17 -249 c 1 -158 11 -233 50 -367 l 6 -23 l -631 -2 l -631 -3 l -27 -28 c -41 -40 -39 -99 5 -138 l 32 -29 l 669 0 l 669 0 l 30 -53 c 49 -87 145 -208 229 -287 c 393 -374 973 -464 1461 -227 l 83 40 l 45 -44 l 45 -44 l -3 -272 l -3 -273 l -28 -27 l -27 -28 l -1760 0 l -1760 0 l -27 28 l -28 27 l 0 2299 c 0 2285 0 2299 20 2321 c 11 12 29 26 40 31 c 11 4 599 8 1307 8 l 1287 1 l 3 -377 z m 571 -401 c -142 -2 -272 0 -289 3 c -17 3 -42 17 -55 31 l -24 26 l -3 286 l -3 287 l 316 -315 l 315 -315 l -257 -3 z m -108 -1047 c 375 -79 689 -356 811 -713 c 174 -509 -32 -1053 -501 -1321 c -218 -125 -507 -169 -760 -116 c -374 78 -689 356 -811 713 c -221 647 182 1328 856 1446 c 106 19 295 15 405 -9 z"/>
<path d="M 603 4378 c -58 -28 -63 -122 -9 -162 c 27 -21 31 -21 1021 -21 l 993 0 l 26 24 c 31 30 42 73 26 112 c -26 62 25 59 -1052 58 c -672 0 -990 -4 -1005 -11 z"/>
<path d="M 615 3691 c -37 -16 -60 -51 -60 -93 c 0 -33 6 -45 33 -69 c 18 -16 43 -29 57 -29 c 107 0 144 139 50 185 c -36 17 -50 18 -80 6 z"/>
<path d="M 1033 3686 c -61 -27 -74 -107 -24 -157 l 29 -29 l 777 0 c 850 0 819 -2 845 59 c 16 39 5 82 -26 112 l -26 24 l -771 2 c -641 2 -777 0 -804 -11 z"/>
<path d="M 620 2997 c -49 -17 -76 -72 -60 -121 c 22 -68 3 -66 574 -66 l 515 0 l 28 24 c 23 20 28 32 28 69 c 0 54 -22 82 -74 97 c -54 15 -966 12 -1011 -3 z"/>
<path d="M 603 2298 c -58 -28 -63 -122 -9 -162 c 27 -21 37 -21 513 -21 l 485 0 l 29 33 c 42 47 36 103 -15 144 c -19 16 -61 18 -501 17 c -317 0 -487 -4 -502 -11 z"/>
<path d="M 620 917 c -49 -17 -76 -72 -60 -121 c 22 -68 9 -66 520 -66 l 461 0 l 24 24 c 36 36 42 73 19 115 c -13 24 -31 40 -54 48 c -49 17 -861 17 -910 0 z"/>
<path d="M 1845 896 c -32 -32 -40 -69 -25 -107 c 17 -39 46 -59 90 -59 c 44 0 73 20 90 59 c 26 64 -20 131 -90 131 c -30 0 -47 -6 -65 -24 z" />
</g>
</svg>